<svg aria-hidden="true" style="position: absolute; width: 0; height: 0; overflow: hidden;" version="1.1" xmlns="http://www.w3.org/2000/svg " xmlns:xlink="http://www.w3.org/1999/xlink ">
<defs>
<symbol id="icon-arrow-left" viewBox="0 0 32 32">
<path stroke-linejoin="round" stroke-linecap="round" stroke-miterlimit="4" stroke-width="2" d="M26.666 16h-21.332M13.334 24l-8-8 8-8"></path>
</symbol>
<symbol id="icon-arrow-right" viewBox="0 0 32 32">
<path stroke-linejoin="round" stroke-linecap="round" stroke-miterlimit="4" stroke-width="2" d="M5.333 16h21.334M18.666 8l8 8-8 8"></path>
</symbol>
<symbol id="icon-art-icon" viewBox="0 0 32 32">
<path stroke-linejoin="round" stroke-linecap="round" stroke-miterlimit="4" stroke-width="2.6667" d="M17.037 20l-5.037-5.037M2.667 29.333c2.667 0 6.144 0.456 7.967-1.367 0.845-0.845 1.367-2.011 1.367-3.3 0-2.577-2.089-4.667-4.667-4.667-1.289 0-2.455 0.522-3.3 1.367v0c-1.823 1.823 0 5.3-1.367 7.967z"></path>
<path stroke-linejoin="round" stroke-linecap="round" stroke-miterlimit="4" stroke-width="2.6667" d="M10.667 21.333c-0.655-0.656-0.983-0.983-1.168-1.327-0.201-0.366-0.32-0.802-0.32-1.267 0-0.5 0.138-0.968 0.377-1.368l-0.007 0.012c0.197-0.336 0.537-0.651 1.217-1.28l13.157-12.183c0.525-0.495 1.234-0.799 2.014-0.799 1.623 0 2.939 1.316 2.939 2.939 0 0.78-0.304 1.489-0.8 2.015l0.001-0.001-12.183 13.159c-0.631 0.68-0.945 1.019-1.28 1.217-0.388 0.233-0.856 0.371-1.357 0.371-0.464 0-0.901-0.119-1.281-0.327l0.014 0.007c-0.343-0.185-0.671-0.513-1.325-1.168z"></path>
</symbol>
<symbol id="icon-comunication-icon" viewBox="0 0 32 32">
<path stroke-linejoin="round" stroke-linecap="round" stroke-miterlimit="4" stroke-width="2.6667" d="M8.125 14.972c-0.080-0.49-0.125-1.056-0.125-1.631 0-0.003 0-0.005 0-0.008v0c0-5.891 4.807-10.667 10.737-10.667 5.929 0 10.736 4.776 10.736 10.667 0 1.331-0.245 2.605-0.693 3.78-0.093 0.243-0.14 0.365-0.16 0.46-0.019 0.077-0.031 0.166-0.032 0.258v0.001c-0.003 0.097 0.011 0.204 0.037 0.419l0.537 4.36c0.057 0.473 0.087 0.709 0.008 0.88-0.070 0.151-0.19 0.269-0.338 0.334l-0.004 0.002c-0.173 0.073-0.408 0.040-0.88-0.029l-4.245-0.623c-0.223-0.032-0.333-0.049-0.435-0.048-0.003-0-0.006-0-0.009-0-0.091 0-0.18 0.010-0.266 0.030l0.008-0.002c-0.099 0.021-0.225 0.068-0.477 0.163-1.128 0.432-2.433 0.683-3.796 0.683-0.575 0-1.14-0.045-1.692-0.13l0.061 0.008M10.176 29.333c3.953 0 7.157-3.283 7.157-7.333s-3.204-7.333-7.157-7.333c-3.953 0-7.159 3.283-7.159 7.333 0 0.813 0.129 1.597 0.369 2.329 0.1 0.309 0.151 0.464 0.168 0.569 0.017 0.111 0.020 0.173 0.013 0.284-0.007 0.107-0.033 0.227-0.087 0.468l-0.815 3.683 3.993-0.545c0.217-0.029 0.327-0.045 0.421-0.044 0.101 0 0.153 0.007 0.253 0.027 0.093 0.017 0.231 0.067 0.508 0.164 0.693 0.253 1.493 0.399 2.328 0.399 0.002 0 0.004 0 0.006 0h-0z"></path>
</symbol>
<symbol id="icon-expertise-icon" viewBox="0 0 32 32">
<path stroke-linejoin="round" stroke-linecap="round" stroke-miterlimit="4" stroke-width="2.6667" d="M26.667 28c0-1.861 0-2.791-0.229-3.548-0.529-1.708-1.848-3.026-3.518-3.546l-0.038-0.010c-0.757-0.229-1.687-0.229-3.548-0.229h-6.667c-1.861 0-2.791 0-3.548 0.229-1.708 0.529-3.027 1.848-3.546 3.518l-0.010 0.038c-0.229 0.757-0.229 1.687-0.229 3.548M16 16c3.314 0 6-2.686 6-6s-2.686-6-6-6v0c-3.314 0-6 2.686-6 6s2.686 6 6 6v0z"></path>
</symbol>
<symbol id="icon-urgent-icon" viewBox="0 0 32 32">
<path stroke-linejoin="round" stroke-linecap="round" stroke-miterlimit="4" stroke-width="2.6667" d="M24.217 2.667h-16.435c-0.616 0-1.116 0.5-1.116 1.116v0c0 0 0 0 0 0 0 3.7 1.5 7.050 3.924 9.474l1.627 1.627c0.16 0.16 0.241 0.241 0.299 0.32 0.165 0.219 0.264 0.496 0.264 0.797s-0.099 0.577-0.267 0.8l0.002-0.003c-0.095 0.116-0.193 0.221-0.297 0.318l-0.002 0.002-1.627 1.625c-2.424 2.425-3.924 5.775-3.924 9.474 0 0 0 0 0 0v-0c0 0.616 0.5 1.116 1.116 1.116h16.435c0.616 0 1.116-0.5 1.116-1.116v0c0-0 0-0 0-0 0-3.7-1.5-7.050-3.924-9.474l-1.627-1.627c-0.16-0.16-0.241-0.241-0.299-0.32-0.165-0.219-0.264-0.496-0.264-0.797s0.099-0.577 0.267-0.8l-0.002 0.003c0.057-0.077 0.137-0.157 0.299-0.32l1.627-1.625c2.424-2.425 3.924-5.775 3.924-9.474 0-0 0-0 0-0v0c0-0.616-0.5-1.116-1.116-1.116v0z"></path>
</symbol>
<symbol id="icon-FB" viewBox="0 0 48 32">
<path d="M2.501 32v-31.040h19.269v4.019h-14.584v10.064h13.189v4h-13.189v12.957h-4.685zM24.856 32v-31.040h11.395c2.195 0 4.013 0.36 5.459 1.083 1.445 0.72 2.52 1.701 3.227 2.936 0.725 1.224 1.085 2.597 1.085 4.125 0 1.291-0.243 2.381-0.728 3.272-0.456 0.868-1.098 1.582-1.876 2.11l-0.020 0.013c-0.753 0.507-1.629 0.908-2.567 1.155l-0.060 0.013v0.293c1.043 0.053 2.056 0.387 3.043 0.997 0.987 0.613 1.8 1.48 2.437 2.605 0.653 1.112 0.979 2.472 0.979 4.083 0 1.584-0.373 3.008-1.125 4.272-0.736 1.251-1.875 2.24-3.413 2.979-1.544 0.736-3.523 1.104-5.939 1.104h-11.899zM29.541 28h6.752c2.248 0 3.861-0.437 4.832-1.312 0.973-0.875 1.459-1.965 1.459-3.272 0-0.987-0.251-1.88-0.749-2.688-0.511-0.837-1.226-1.504-2.077-1.944l-0.029-0.014c-0.915-0.485-2-0.728-3.248-0.728h-6.939v9.957zM29.541 14.395h6.293c1.040 0 1.987-0.2 2.832-0.603 0.848-0.403 1.515-0.973 2-1.707 0.472-0.709 0.753-1.581 0.753-2.518 0-0.031-0-0.062-0.001-0.092l0 0.005c0-1.28-0.453-2.347-1.355-3.208-0.891-0.877-2.259-1.315-4.107-1.315h-6.416v9.443z"></path>
</symbol>
<symbol id="icon-GH" viewBox="0 0 54 32">
<path d="M14.425 29.922c-2.592 0-4.866-0.596-6.828-1.787-1.95-1.194-3.476-2.885-4.578-5.078-1.088-2.206-1.632-4.815-1.632-7.828 0-3.052 0.549-5.671 1.652-7.865 1.118-2.206 2.641-3.897 4.578-5.076 1.935-1.194 4.14-1.79 6.612-1.79 1.538 0 2.976 0.231 4.308 0.692 2.634 0.876 4.78 2.623 6.145 4.892l0.028 0.051c0.692 1.142 1.159 2.412 1.403 3.808h-4.418c-0.269-0.872-0.636-1.631-1.098-2.321l0.020 0.032c-0.881-1.332-2.177-2.328-3.7-2.812l-0.049-0.013c-0.75-0.244-1.612-0.385-2.508-0.385-0.038 0-0.077 0-0.115 0.001l0.006-0c-1.615 0-3.070 0.416-4.364 1.25-1.295 0.82-2.321 2.031-3.077 3.633-0.758 1.602-1.135 3.564-1.135 5.883 0 2.321 0.377 4.283 1.132 5.886 0.758 1.602 1.797 2.821 3.116 3.655 1.322 0.82 2.821 1.231 4.5 1.231 1.551 0 2.905-0.315 4.059-0.943 1.154-0.64 2.050-1.538 2.693-2.693 0.64-1.154 0.96-2.518 0.96-4.096l1.135 0.212h-8.192v-3.577h11.269v3.269c0 2.412-0.512 4.495-1.538 6.252-1.006 1.739-2.445 3.128-4.172 4.046l-0.056 0.027c-1.794 0.96-3.845 1.442-6.154 1.442zM29.366 29.538v-28.652h4.327v12.46h14.27v-12.463h4.327v28.655h-4.327v-12.48h-14.27v12.48h-4.327z"></path>
</symbol>
<symbol id="icon-Icon_down" viewBox="0 0 32 32">
<path stroke-linejoin="miter" stroke-linecap="butt" stroke-miterlimit="4" stroke-width="3.2" d="M24 12l-8 8-8-8"></path>
</symbol>
<symbol id="icon-Icon_up" viewBox="0 0 32 32">
<path stroke-linejoin="miter" stroke-linecap="butt" stroke-miterlimit="4" stroke-width="3.2" d="M24 20l-8-8-8 8"></path>
</symbol>
<symbol id="icon-IG" viewBox="0 0 37 32">
<path d="M6.634 0.886v28.652h-4.325v-28.652h4.325zM22.597 29.92c-2.59 0-4.866-0.596-6.826-1.787-1.95-1.194-3.476-2.885-4.578-5.078-1.090-2.206-1.634-4.815-1.634-7.828 0-3.052 0.551-5.671 1.654-7.865 1.115-2.206 2.641-3.897 4.578-5.076 1.932-1.191 4.138-1.787 6.612-1.787 1.538 0 2.974 0.231 4.308 0.692 2.634 0.876 4.78 2.623 6.145 4.892l0.028 0.051c0.689 1.142 1.159 2.412 1.403 3.808h-4.423c-0.268-0.872-0.634-1.631-1.096-2.321l0.020 0.032c-0.882-1.332-2.178-2.328-3.702-2.812l-0.049-0.013c-0.75-0.244-1.612-0.385-2.507-0.385-0.038 0-0.075 0-0.112 0.001l0.006-0c-1.617 0-3.072 0.416-4.367 1.25-1.295 0.82-2.319 2.031-3.077 3.633-0.756 1.602-1.132 3.564-1.132 5.883 0 2.321 0.377 4.283 1.132 5.886 0.758 1.602 1.797 2.821 3.116 3.655 1.319 0.82 2.821 1.231 4.5 1.231 1.551 0 2.905-0.315 4.057-0.943 1.157-0.64 2.053-1.538 2.693-2.693s0.96-2.518 0.96-4.096l1.137 0.212h-8.19v-3.577h11.269v3.269c0 2.412-0.514 4.495-1.538 6.252-1.007 1.739-2.447 3.128-4.175 4.046l-0.057 0.027c-1.797 0.96-3.847 1.442-6.154 1.442z"></path>
</symbol>
<symbol id="icon-YT" viewBox="0 0 56 32">
<path d="M1.44 0.96h5.307l8.125 14.123h0.333l8.085-14.123h5.355l-11.269 18.853v12.187h-4.688v-12.187l-11.251-18.853zM29.52 4.979v-4.019h24.043v4.021h-9.667v27.019h-4.667v-27.021h-9.707z"></path>
</symbol>
<symbol id="icon-icon" viewBox="0 0 64 32">
<path stroke-linejoin="round" stroke-linecap="round" stroke-miterlimit="4" stroke-width="5.3333" d="M4 5.111h56M4 26.889h56"></path>
</symbol>

</defs>
</svg>