
<svg width="0" height="0" class="hidden">
  <symbol xmlns="http://www.w3.org/2000/svg" id="angle-small-down" viewBox="0 0 24 24">
    <path d="M18.71,8.21a1,1,0,0,0-1.42,0l-4.58,4.58a1,1,0,0,1-1.42,0L6.71,8.21a1,1,0,0,0-1.42,0,1,1,0,0,0,0,1.41l4.59,4.59a3,3,0,0,0,4.24,0l4.59-4.59A1,1,0,0,0,18.71,8.21Z"></path>
  </symbol>

  <symbol xmlns="http://www.w3.org/2000/svg" id="angle-small-up" viewBox="0 0 24 24">
    <path d="M18,15.5a1,1,0,0,1-.71-.29l-4.58-4.59a1,1,0,0,0-1.42,0L6.71,15.21a1,1,0,0,1-1.42-1.42L9.88,9.21a3.06,3.06,0,0,1,4.24,0l4.59,4.58a1,1,0,0,1,0,1.42A1,1,0,0,1,18,15.5Z"></path>
  </symbol>

  <symbol fill="none" xmlns="http://www.w3.org/2000/svg" viewBox="0 0 32 32" id="arrow-left">
    <path d="M26.666 16H5.334M13.334 24l-8-8 8-8" stroke="#3B3B3B" stroke-width="2" stroke-linecap="round" stroke-linejoin="round"></path>
  </symbol>

  <symbol fill="none" xmlns="http://www.w3.org/2000/svg" viewBox="0 0 32 32" id="arrow-right">
    <path d="M5.333 16h21.334M18.666 8l8 8-8 8" stroke="#FAFAFA" stroke-width="2" stroke-linecap="round" stroke-linejoin="round"></path>
  </symbol>

  <symbol fill="none" xmlns="http://www.w3.org/2000/svg" viewBox="0 0 24 24" id="close-modal">
    <path d="M18 6L6 18" stroke="#FAFAFA" stroke-width="2" stroke-linecap="round" stroke-linejoin="round"></path>
    <path d="M6 6L18 18" stroke="#FAFAFA" stroke-width="2" stroke-linecap="round" stroke-linejoin="round"></path>
  </symbol>

  <symbol fill="none" xmlns="http://www.w3.org/2000/svg" viewBox="0 0 24 24" id="expertise-icon">
    <path d="M20 21c0-1.396 0-2.093-.172-2.661a4 4 0 0 0-2.667-2.667c-.568-.172-1.265-.172-2.661-.172h-5c-1.396 0-2.093 0-2.661.172a4 4 0 0 0-2.667 2.667C4 18.907 4 19.604 4 21M12 12a4.5 4.5 0 1 0 0-9 4.5 4.5 0 0 0 0 9Z" stroke="#FAFAFA" stroke-width="2" stroke-linecap="round" stroke-linejoin="round"></path>
  </symbol>

  <symbol fill="none" xmlns="http://www.w3.org/2000/svg" viewBox="0 0 12 8" id="Icon_down">
    <path d="M11 1.5L6 6.5L1 1.5" stroke="#FAFAFA" stroke-width="2"></path>
  </symbol>

  <symbol fill="none" xmlns="http://www.w3.org/2000/svg" viewBox="0 0 12 8" id="Icon_up">
    <path d="M11 6.5L6 1.5L1 6.5" stroke="#FAFAFA" stroke-width="2"></path>
  </symbol>

  <symbol fill="none" xmlns="http://www.w3.org/2000/svg" viewBox="0 0 28 28" id="menu">
    <path d="M3.5 9.91666H24.5M3.5 18.0833H24.5" stroke="#FAFAFA" stroke-width="2" stroke-linecap="round" stroke-linejoin="round"></path>
  </symbol>

  <symbol fill="none" xmlns="http://www.w3.org/2000/svg" viewBox="0 0 21 12" id="YT">
    <path d="M.54.36H2.53l3.047 5.296h.125L8.734.36h2.008L6.516 7.43V12H4.758V7.43L.539.36Zm10.53 1.507V.36h9.016v1.508h-3.625V12h-1.75V1.867h-3.64Z" fill="#FAFAFA"></path>
  </symbol>
  
  <symbol fill="none" xmlns="http://www.w3.org/2000/svg" viewBox="0 0 24 24" id="art-icon">
    <path d="M12.778 15 9 11.222M2 22c2 0 4.608.342 5.975-1.025a3.5 3.5 0 1 0-4.95-4.95C1.658 17.392 3.025 20 2 22Z" stroke="#FAFAFA" stroke-width="2" stroke-linecap="round" stroke-linejoin="round"></path>
    <path d="M8 16c-.491-.492-.737-.737-.876-.995a2 2 0 0 1 .038-1.967c.148-.252.403-.488.913-.96l9.868-9.137a2.204 2.204 0 0 1 3.116 3.115l-9.137 9.869c-.473.51-.709.764-.96.913a2 2 0 0 1-1.968.038c-.257-.139-.503-.385-.994-.876Z" stroke="#FAFAFA" stroke-width="2" stroke-linecap="round" stroke-linejoin="round"></path>
  </symbol>

  <symbol fill="none" xmlns="http://www.w3.org/2000/svg" viewBox="0 0 24 24" id="comunication-icon">
    <path d="M6.094 11.229A8.01 8.01 0 0 1 6 10c0-4.418 3.605-8 8.053-8 4.447 0 8.052 3.582 8.052 8 0 .998-.184 1.954-.52 2.835-.07.182-.105.274-.12.345a.897.897 0 0 0-.024.194c-.002.073.008.153.028.314l.403 3.27c.043.355.065.532.006.66a.5.5 0 0 1-.257.252c-.13.055-.306.03-.66-.022l-3.184-.467c-.167-.024-.25-.037-.326-.036a.898.898 0 0 0-.2.021c-.074.016-.169.051-.358.122a8.174 8.174 0 0 1-4.07.42M7.632 22C10.597 22 13 19.538 13 16.5S10.597 11 7.632 11c-2.965 0-5.369 2.462-5.369 5.5 0 .61.097 1.198.277 1.747.075.232.113.348.126.427.013.083.015.13.01.213-.005.08-.025.17-.065.351L2 22l2.995-.409c.163-.022.245-.034.316-.033.076 0 .115.005.19.02.07.013.173.05.381.123a5.246 5.246 0 0 0 1.75.299Z" stroke="#FAFAFA" stroke-width="2" stroke-linecap="round" stroke-linejoin="round"></path>
  </symbol>

  <symbol fill="none" xmlns="http://www.w3.org/2000/svg" viewBox="0 0 18 12" id="FB">
    <path d="M.938 12V.36h7.226v1.507H2.695v3.774h4.946v1.5H2.695V12H.938Zm8.383 0V.36h4.273c.823 0 1.505.135 2.047.406.542.27.945.638 1.21 1.101.272.459.407.974.407 1.547 0 .484-.091.893-.273 1.227a2.151 2.151 0 0 1-.711.796 3.23 3.23 0 0 1-.985.438v.11c.391.02.771.145 1.141.374.37.23.675.555.914.977.245.417.367.927.367 1.531 0 .594-.14 1.128-.422 1.602-.276.469-.703.84-1.28 1.117-.579.276-1.321.414-2.227.414H9.32Zm1.757-1.5h2.532c.843 0 1.448-.164 1.812-.492.365-.328.547-.737.547-1.227 0-.37-.094-.705-.281-1.008a1.96 1.96 0 0 0-.79-.734c-.343-.182-.75-.273-1.218-.273h-2.602V10.5Zm0-5.102h2.36c.39 0 .745-.075 1.062-.226.318-.151.568-.365.75-.64a1.72 1.72 0 0 0 .282-.977c0-.48-.17-.88-.508-1.203-.334-.329-.847-.493-1.54-.493h-2.406V5.4Z" fill="#FAFAFA"></path>
  </symbol>

  <symbol fill="none" xmlns="http://www.w3.org/2000/svg" viewBox="0 0 22 13" id="GH">
    <path d="M5.86 12.156c-1.053 0-1.977-.242-2.774-.726-.792-.485-1.412-1.172-1.86-2.063-.442-.896-.663-1.956-.663-3.18 0-1.24.223-2.304.671-3.195.454-.896 1.073-1.583 1.86-2.062C3.88.445 4.776.203 5.78.203c.625 0 1.209.094 1.75.281a4.56 4.56 0 0 1 2.508 2.008c.281.464.471.98.57 1.547H8.813a3.562 3.562 0 0 0-.438-.93 2.82 2.82 0 0 0-1.523-1.148 3.398 3.398 0 0 0-1.063-.156c-.656 0-1.247.169-1.773.508-.526.333-.943.825-1.25 1.476-.308.651-.461 1.448-.461 2.39 0 .943.153 1.74.46 2.391.308.651.73 1.146 1.266 1.485.537.333 1.146.5 1.828.5.63 0 1.18-.128 1.649-.383.469-.26.833-.625 1.094-1.094.26-.469.39-1.023.39-1.664l.461.086H6.125V6.047h4.578v1.328c0 .98-.208 1.826-.625 2.54A4.244 4.244 0 0 1 8.36 11.57c-.729.39-1.562.586-2.5.586ZM11.93 12V.36h1.758v5.062h5.797V.359h1.758V12h-1.758V6.93h-5.797V12H11.93Z" fill="#FAFAFA"></path>
  </symbol>

  <symbol fill="none" xmlns="http://www.w3.org/2000/svg" viewBox="0 0 15 13" id="IG">
    <path d="M2.695.36V12H.938V.36h1.757ZM9.18 12.155c-1.052 0-1.977-.242-2.773-.726-.792-.485-1.412-1.172-1.86-2.063-.443-.896-.664-1.956-.664-3.18 0-1.24.224-2.304.672-3.195.453-.896 1.073-1.583 1.86-2.062C7.2.445 8.096.203 9.101.203c.625 0 1.208.094 1.75.281a4.559 4.559 0 0 1 2.508 2.008c.28.464.471.98.57 1.547h-1.797a3.559 3.559 0 0 0-.437-.93 2.82 2.82 0 0 0-1.524-1.148 3.398 3.398 0 0 0-1.062-.156c-.657 0-1.248.169-1.774.508-.526.333-.942.825-1.25 1.476-.307.651-.46 1.448-.46 2.39 0 .943.153 1.74.46 2.391.308.651.73 1.146 1.266 1.485.536.333 1.146.5 1.828.5.63 0 1.18-.128 1.648-.383.47-.26.834-.625 1.094-1.094.26-.469.39-1.023.39-1.664l.462.086H9.446V6.047h4.578v1.328c0 .98-.209 1.826-.625 2.54a4.245 4.245 0 0 1-1.719 1.655c-.73.39-1.563.586-2.5.586Z" fill="#FAFAFA"></path>
  </symbol>
  
  <symbol fill="none" xmlns="http://www.w3.org/2000/svg" viewBox="0 0 24 24" id="urgent-icon">
    <path d="M18.163 2H5.837A.837.837 0 0 0 5 2.837a10.05 10.05 0 0 0 2.943 7.106l1.22 1.22c.12.12.181.181.224.24a1 1 0 0 1 0 1.195 2.508 2.508 0 0 1-.224.24l-1.22 1.219A10.05 10.05 0 0 0 5 21.163c0 .462.375.837.837.837h12.326a.837.837 0 0 0 .837-.837 10.05 10.05 0 0 0-2.943-7.106l-1.22-1.22c-.12-.12-.181-.181-.224-.24a1 1 0 0 1 0-1.195c.043-.058.103-.118.224-.24l1.22-1.219A10.05 10.05 0 0 0 19 2.837.837.837 0 0 0 18.163 2Z" stroke="#FAFAFA" stroke-width="2" stroke-linecap="round" stroke-linejoin="round"></path>
  </symbol>

</svg>